<svg width="512" height="512" xmlns="http://www.w3.org/2000/svg">

 <g>
  <title>background</title>
  <rect fill="none" id="canvas_background" height="402" width="582" y="-1" x="-1"/>
 </g>
 <g>
  <title>Layer 1</title>
  <path id="svg_2" fill="#ffffff" d="m306.9,122.6c0.1,-1.4 0.4,-2.8 0.4,-4.2c0,-24.5 -19.9,-44.4 -44.4,-44.4s-44.4,19.9 -44.4,44.4c0,1.5 0.3,2.8 0.4,4.2l88,0z"/>
  <path id="svg_3" fill="#ffffff" d="m457.6,-0.8l-64.9,0c-7.9,0 -15.1,4.7 -18.3,12l-54.3,124.8l-267.7,0c-16,0 -24,19.3 -12.7,30.7l170.9,170.9l0,144.2l-68.8,0c-8.5,0 -15.5,7 -15.5,15.5c0,8.5 7,15.5 15.5,15.5l168,0c8.5,0 15.5,-7 15.5,-15.5c0,-8.5 -7,-15.5 -15.5,-15.5l-68.8,0l0,-144.3l171,-170.9c11.3,-11.3 3.3,-30.7 -12.7,-30.7l-35.7,0l42.2,-96.8l51.8,0c11,0 20,-8.9 20,-20c0,-10.9 -8.9,-19.9 -20,-19.9z"/>
 </g>
</svg>