<svg width="48" height="48" xmlns="http://www.w3.org/2000/svg">

 <g>
  <title>background</title>
  <rect fill="none" id="canvas_background" height="402" width="582" y="-1" x="-1"/>
 </g>
 <g>
  <title>Layer 1</title>
  <path id="svg_1" fill="none" d="m0,0l48,0l0,48l-48,0l0,-48z"/>
  <path fill="#ffffff" id="svg_2" d="m16.2,26.69l5.66,-5.66l-14.03,-14.03c-3.12,3.12 -3.12,8.19 0,11.31l8.37,8.38zm13.57,-3.63c3.05,1.43 7.36,0.42 10.54,-2.76c3.83,-3.83 4.56,-9.3 1.63,-12.23c-2.94,-2.93 -8.42,-2.2 -12.24,1.63c-3.18,3.18 -4.18,7.49 -2.76,10.54c-4.45,4.44 -19.53,19.52 -19.53,19.52l2.83,2.83l13.76,-13.76l13.76,13.76l2.83,-2.83l-13.76,-13.76l2.94,-2.94z"/>
 </g>
</svg>