<svg width="32" height="32" xmlns="http://www.w3.org/2000/svg">

 <g>
  <title>background</title>
  <rect fill="none" id="canvas_background" height="402" width="582" y="-1" x="-1"/>
 </g>
 <g>
  <title>Layer 1</title>
  <path fill="#ad1a1a" id="XMLID_223_" d="m27.414,24.586l-5.077,-5.077c1.049,-1.581 1.663,-3.474 1.663,-5.509c0,-5.514 -4.486,-10 -10,-10s-10,4.486 -10,10s4.486,10 10,10c2.035,0 3.928,-0.614 5.509,-1.663l5.077,5.077c0.78,0.781 2.048,0.781 2.828,0c0.781,-0.781 0.781,-2.047 0,-2.828zm-20.414,-10.586c0,-3.86 3.14,-7 7,-7s7,3.14 7,7s-3.14,7 -7,7s-7,-3.14 -7,-7z"/>
 </g>
</svg>